Coordinates
version=1
nRows=13
nColumns=38
inDegrees=no

Units are S.I. units (second, meters, Newtons, ...)
If the header above contains a line with 'inDegrees', this indicates whether rotational values are in degrees (yes) or radians (no).

endheader
time	pelvis_tilt	pelvis_list	pelvis_rotation	pelvis_tx	pelvis_ty	pelvis_tz	hip_flexion_r	hip_adduction_r	hip_rotation_r	knee_angle_r	ankle_angle_r	subtalar_angle_r	mtp_angle_r	hip_flexion_l	hip_adduction_l	hip_rotation_l	knee_angle_l	ankle_angle_l	subtalar_angle_l	mtp_angle_l	lumbar_extension	lumbar_bending	lumbar_rotation	arm_flex_r	arm_add_r	arm_rot_r	elbow_flex_r	pro_sup_r	wrist_flex_r	wrist_dev_r	arm_flex_l	arm_add_l	arm_rot_l	elbow_flex_l	pro_sup_l	wrist_flex_l	wrist_dev_l
2.05	-2.58931	1.29652	-1.89662	0.646568	1.44297	0.907208	0.226677	-0.329013	-0.497693	0.730473	-0.174584	0	0	-0.429416	0.120204	0.158794	0.698783	-0.103325	0	0	-0.194028	-0.0165411	0.095359	-0.368485	-0.812762	-0.251483	1.74766	0.472145	0	0	0.712169	-0.512818	1.01245	1.10832	0.506985	0	0
2.06	-2.60829	1.29472	-1.87943	0.647498	1.45415	0.908207	0.215453	-0.326114	-0.507814	0.746331	-0.162032	0	0	-0.4126	0.12171	0.191417	0.761876	-0.124589	0	0	-0.195565	-0.0117706	0.0967599	-0.367182	-0.81781	-0.245071	1.74646	0.462421	0	0	0.709112	-0.513968	1.01227	1.108	0.504624	0	0
2.07	-2.63324	1.29127	-1.85655	0.648392	1.46511	0.909374	0.198681	-0.321859	-0.521696	0.756664	-0.15363	0	0	-0.392446	0.122228	0.215132	0.831657	-0.148597	0	0	-0.200093	-0.00555503	0.0985333	-0.366527	-0.821534	-0.24177	1.74678	0.459678	0	0	0.706746	-0.515012	1.01158	1.10837	0.503658	0	0
2.08	-2.66012	1.2874	-1.83095	0.649291	1.4761	0.910541	0.177793	-0.316442	-0.539285	0.762199	-0.145417	0	0	-0.368652	0.121477	0.231467	0.904247	-0.176288	0	0	-0.205004	0.00121198	0.0999498	-0.366203	-0.823837	-0.238639	1.74737	0.45663	0	0	0.704853	-0.516331	1.01149	1.10929	0.502805	0	0
2.09	-2.684	1.28154	-1.80858	0.650094	1.4865	0.911757	0.154606	-0.311263	-0.554465	0.764341	-0.139188	0	0	-0.34351	0.120185	0.236905	0.972997	-0.204732	0	0	-0.213269	0.00709215	0.101753	-0.365281	-0.82699	-0.237746	1.74873	0.450273	0	0	0.704653	-0.517533	1.01125	1.1113	0.501791	0	0
2.1	-2.8394	1.26667	-1.68153	0.653306	1.50102	0.912013	0.109347	-0.254081	-0.559798	0.748898	-0.122109	0	0	-0.2936	-0.132259	-0.302119	1.07846	-0.390881	0	0	-0.229839	0.0500374	0.135074	-0.386809	-0.846827	-0.249599	1.76328	0.430156	0	0	0.703912	-0.517189	1.01844	1.11925	0.492216	0	0
2.11	-2.8524	1.26314	-1.66807	0.654187	1.51077	0.912903	0.0904936	-0.248273	-0.570555	0.748706	-0.113868	0	0	-0.260997	-0.136375	-0.27688	1.14273	-0.396018	0	0	-0.235618	0.0533551	0.135659	-0.3857	-0.848249	-0.249496	1.76466	0.430164	0	0	0.705429	-0.519405	1.01884	1.12262	0.491254	0	0
2.12	-2.72496	1.27088	-1.76653	0.651869	1.51582	0.914478	0.0968882	-0.298673	-0.590941	0.769101	-0.110435	0	0	-0.25394	0.12641	0.260648	1.17041	-0.249449	0	0	-0.231279	0.0179257	0.103567	-0.364594	-0.837376	-0.237874	1.75415	0.440205	0	0	0.708113	-0.521476	1.01174	1.11957	0.497437	0	0
2.13	-2.73394	1.26807	-1.75512	0.652151	1.52513	0.915557	0.0784235	-0.293768	-0.600104	0.767262	-0.103307	0	0	-0.223556	0.13247	0.271078	1.23131	-0.247824	0	0	-0.236416	0.02073	0.103543	-0.365986	-0.839996	-0.240296	1.75547	0.441036	0	0	0.710567	-0.520641	1.01296	1.11991	0.496608	0	0
2.14	-2.73914	1.26427	-1.74677	0.652448	1.53429	0.916981	0.0581096	-0.288425	-0.607397	0.761516	-0.0926058	0	0	-0.195527	0.140057	0.27967	1.28529	-0.229689	0	0	-0.242247	0.0219482	0.103169	-0.366046	-0.838509	-0.24269	1.75501	0.443962	0	0	0.714056	-0.519207	1.01557	1.11884	0.496335	0	0
2.15	-2.74	1.25963	-1.74327	0.652823	1.54333	0.918615	0.0368879	-0.28344	-0.61252	0.753172	-0.0880528	0	0	-0.169327	0.149806	0.287257	1.33218	-0.206949	0	0	-0.249016	0.0207253	0.102074	-0.36352	-0.838451	-0.24144	1.75302	0.441735	0	0	0.717006	-0.519985	1.01772	1.12038	0.49571	0	0
2.16	-2.73913	1.25525	-1.74228	0.653279	1.55236	0.920329	0.0155905	-0.278156	-0.616595	0.74275	-0.0823884	0	0	-0.143934	0.160682	0.29489	1.3731	-0.178633	0	0	-0.25518	0.0186258	0.101338	-0.360562	-0.83768	-0.240134	1.75083	0.440796	0	0	0.719481	-0.521182	1.01969	1.122	0.494497	0	0
2.17	-2.73682	1.25127	-1.74399	0.653862	1.56152	0.922058	-0.00561434	-0.273146	-0.620934	0.731205	-0.0767203	0	0	-0.119409	0.172327	0.301609	1.40616	-0.154414	0	0	-0.260242	0.0158133	0.101616	-0.357876	-0.836763	-0.23821	1.74882	0.440513	0	0	0.721309	-0.52244	1.02156	1.12309	0.492821	0	0
